<svg width="80" height="80" viewBox="0 0 80 80" fill="none" xmlns="http://www.w3.org/2000/svg">
    <circle cx="40" cy="40" r="40" fill="#D2AE80" />
    <g clip-path="url(#clip0_53_326)">
        <path
            d="M33.6439 26.4227C33.2497 26.6898 33.1953 26.8656 33.1953 27.8711V28.7852L32.6312 28.982C32.3253 29.0945 31.7884 29.3195 31.4349 29.4953L30.796 29.8047L30.1775 29.1789C29.5114 28.5039 29.3075 28.4055 28.7977 28.5039C28.5734 28.5391 28.3016 28.7922 26.8606 30.2828C25.4197 31.7734 25.175 32.0547 25.141 32.2797C25.0459 32.8141 25.141 33.025 25.7935 33.7141L26.3984 34.3539L26.0994 35.0148C25.9295 35.3805 25.712 35.9359 25.6032 36.2523L25.4129 36.8359H24.5293C23.5573 36.8359 23.3874 36.8922 23.1291 37.3C23.0068 37.4898 23 37.6727 23 40C23 42.3273 23.0068 42.5102 23.1291 42.7C23.3874 43.1078 23.5573 43.1641 24.5293 43.1641H25.4129L25.6032 43.7477C25.712 44.0641 25.9295 44.6195 26.0994 44.9852L26.3984 45.6461L25.7935 46.2859C25.141 46.975 25.0459 47.1859 25.141 47.7133C25.175 47.9453 25.4197 48.2266 26.8606 49.7172C28.3016 51.2078 28.5734 51.4609 28.7977 51.4961C29.3075 51.5945 29.5114 51.4961 30.1775 50.8211L30.796 50.1953L31.4349 50.5047C31.7884 50.6805 32.3253 50.9055 32.6312 51.018L33.1953 51.2148V52.1289C33.1953 53.1344 33.2497 53.3102 33.6439 53.5773C33.8274 53.6969 33.9905 53.7109 35.5606 53.7109H37.2734V50.4906V47.2773L36.7501 47.3125C33.8138 47.5094 31.1223 45.8711 29.858 43.1289C29.3279 41.9828 29.2191 41.4555 29.2191 40C29.2191 38.5727 29.3279 38.0312 29.8241 36.9344C30.2251 36.0625 30.6057 35.5 31.2514 34.825C32.7263 33.3062 34.6634 32.5469 36.7501 32.6875L37.2734 32.7227V29.5023V26.2891H35.5606C33.9905 26.2891 33.8274 26.3031 33.6439 26.4227Z"
            fill="#1F3C90" />
        <path
            d="M39.3125 40V53.7109H48.2368C56.8552 53.7109 57.1611 53.7039 57.3514 53.5773C57.4534 53.507 57.6029 53.3523 57.6709 53.2469C57.7932 53.05 57.8 52.7406 57.8 43.8883V34.7336L54.1161 34.7125C50.5613 34.6914 50.4186 34.6844 50.2011 34.5508C50.0787 34.4734 49.9088 34.2977 49.8273 34.1641C49.6777 33.918 49.6777 33.8828 49.6573 30.1L49.637 26.2891H44.4781H39.3125V40ZM47.0473 32.793C47.36 32.9828 47.5367 33.3062 47.5367 33.6719C47.5367 34.0375 47.36 34.3609 47.0473 34.5508C46.8366 34.6844 46.7007 34.6914 44.4781 34.6914C42.2555 34.6914 42.1196 34.6844 41.9089 34.5508C41.1341 34.0656 41.3108 32.9125 42.1944 32.6805C42.3099 32.6523 43.3974 32.6313 44.6141 32.6383C46.6939 32.6523 46.8366 32.6594 47.0473 32.793ZM53.1645 37.0117C53.4772 37.2016 53.6539 37.525 53.6539 37.8906C53.6539 38.2563 53.4772 38.5797 53.1645 38.7695C52.947 38.9102 52.8179 38.9102 47.5367 38.9102C42.2555 38.9102 42.1264 38.9102 41.9089 38.7695C41.1341 38.2844 41.3108 37.1242 42.1944 36.8992C42.3099 36.8711 44.7772 36.85 47.6727 36.857C52.8111 36.8711 52.947 36.8711 53.1645 37.0117ZM53.1645 41.2305C53.4772 41.4203 53.6539 41.7438 53.6539 42.1094C53.6539 42.475 53.4772 42.7984 53.1645 42.9883C52.947 43.1289 52.8179 43.1289 47.5367 43.1289C42.2555 43.1289 42.1264 43.1289 41.9089 42.9883C41.1341 42.5031 41.3108 41.343 42.1944 41.118C42.3099 41.0898 44.7772 41.0688 47.6727 41.0758C52.8111 41.0898 52.947 41.0898 53.1645 41.2305ZM53.1645 45.4492C53.4772 45.6391 53.6539 45.9625 53.6539 46.3281C53.6539 46.6938 53.4772 47.0172 53.1645 47.207C52.947 47.3477 52.8179 47.3477 47.5367 47.3477C42.2555 47.3477 42.1264 47.3477 41.9089 47.207C41.1341 46.7219 41.3108 45.5617 42.1944 45.3367C42.3099 45.3086 44.7772 45.2875 47.6727 45.2945C52.8111 45.3086 52.947 45.3086 53.1645 45.4492Z"
            fill="#1F3C90" />
        <path
            d="M51.6829 29.7344V32.6172H54.4832H57.2903L54.5036 29.7344C52.9743 28.1453 51.71 26.8516 51.7033 26.8516C51.6897 26.8516 51.6829 28.1453 51.6829 29.7344Z"
            fill="#1F3C90" />
        <path
            d="M34.9693 34.8672C34.6906 34.9375 34.2012 35.1274 33.8818 35.2961C33.4128 35.5422 33.1681 35.7321 32.6448 36.2735C32.0738 36.8571 31.9515 37.0329 31.6796 37.6094C31.231 38.5797 31.1359 39.0789 31.1698 40.225C31.2106 41.2727 31.3466 41.793 31.8087 42.6649C32.1962 43.3821 33.1477 44.3243 33.875 44.6969C34.6702 45.1047 35.3567 45.2735 36.2471 45.2735C37.3686 45.2735 37.2734 45.386 37.2734 44.0711V42.9532L37.0899 43.0024C36.9812 43.0375 36.5802 43.0586 36.1859 43.0586C35.5198 43.0586 35.4383 43.0446 35.0101 42.8336C34.3916 42.5313 33.807 41.9266 33.5148 41.2868C33.3109 40.8368 33.2973 40.7664 33.2973 40C33.2973 39.2336 33.3109 39.1633 33.5148 38.7133C33.807 38.0735 34.3916 37.4688 35.0101 37.1664C35.4383 36.9555 35.5198 36.9414 36.1859 36.9414C36.5802 36.9414 36.9812 36.9625 37.0899 36.9977L37.2734 37.0469V35.9289C37.2734 34.8321 37.2734 34.811 37.1239 34.7688C36.7909 34.6774 35.4723 34.7407 34.9693 34.8672Z"
            fill="#1F3C90" />
        <path
            d="M35.683 39.0789C35.3703 39.2969 35.2344 39.5641 35.2344 40C35.2344 40.4359 35.3703 40.7031 35.683 40.9211C35.8189 41.0125 36.0024 41.0547 36.2539 41.0547C36.6753 41.0547 36.9336 40.9141 37.1443 40.5906C37.321 40.3164 37.321 39.6836 37.1443 39.4094C36.9336 39.0859 36.6753 38.9453 36.2539 38.9453C36.0024 38.9453 35.8189 38.9875 35.683 39.0789Z"
            fill="#1F3C90" />
    </g>
    <defs>
        <clipPath id="clip0_53_326">
            <rect width="34.8" height="36" fill="white" transform="translate(23 22)" />
        </clipPath>
    </defs>
</svg>
    