<svg width="80" height="80" viewBox="0 0 80 80" fill="none" xmlns="http://www.w3.org/2000/svg">
    <circle cx="40" cy="40" r="40" fill="#D2AE80" />
    <g clip-path="url(#clip0_53_323)">
        <path
            d="M34.832 22.1406C30.5921 22.7875 26.8796 25.164 24.4398 28.8062C23.2515 30.5781 22.3515 33.0461 22.0703 35.289C21.9789 36.0554 21.9789 38.1789 22.0703 38.9453C22.2812 40.6257 22.8015 42.3484 23.5539 43.8601C24.3625 45.4773 25.2203 46.6515 26.5492 47.9523C28.9187 50.2726 31.7945 51.6718 35.1132 52.1359C36.2453 52.2906 38.7062 52.2414 39.789 52.0375C40.5554 51.8968 41.596 51.6297 41.7367 51.5453C41.7999 51.5031 41.7789 51.3484 41.6593 50.9265C41.4132 50.0898 41.2585 49.1476 41.2164 48.1703C41.1953 47.6992 41.1531 47.2914 41.1179 47.2773C41.0898 47.2562 40.7734 47.3406 40.4078 47.4601C39.4234 47.7836 38.3054 47.9523 37.1523 47.9523C35.6757 47.9523 34.5156 47.7414 33.2148 47.2351C29.8117 45.9062 27.2945 42.9601 26.4929 39.3461C26.2679 38.3336 26.2328 36.4211 26.4156 35.3242C26.6054 34.2203 26.9007 33.3414 27.414 32.3007C28.9609 29.2 31.9 27.0062 35.289 26.4226C36.2031 26.2679 37.7289 26.2328 38.5937 26.3593C42.1234 26.8586 45.2242 29.0945 46.8203 32.3007C47.6007 33.8757 47.8679 34.9586 47.9242 36.7726C47.9593 37.9468 47.9031 38.5867 47.6851 39.5992L47.6429 39.8031L47.9523 39.6484C48.121 39.564 48.4867 39.3531 48.7609 39.1773C49.4781 38.7414 49.9351 38.5937 50.6101 38.5937C51.032 38.5937 51.2921 38.6359 51.6507 38.7695C51.9109 38.8609 52.1429 38.9242 52.164 38.9031C52.1851 38.882 52.2132 38.207 52.2203 37.4054C52.2695 34.7054 51.8335 32.7226 50.6874 30.4023C49.8859 28.7711 49.0281 27.5968 47.6851 26.282C45.7164 24.3554 43.4031 23.0617 40.7101 22.3867C39.1421 21.9929 36.5335 21.8804 34.832 22.1406Z"
            fill="#1F3C90" />
        <path
            d="M35.5 28.4407C34.4242 28.6235 33.2007 29.1297 32.1742 29.8118L31.6187 30.1703L32.0476 30.6063C32.5398 31.1055 32.7156 31.4571 32.6453 31.8227C32.582 32.1672 32.2445 32.5258 31.9 32.6172C31.4851 32.7297 31.1828 32.6032 30.6414 32.0758L30.1703 31.6258L29.8046 32.1743C29.1296 33.2008 28.6234 34.4243 28.4406 35.5L28.3562 36.0274L29.0031 36.0696C29.9593 36.1399 30.3671 36.4493 30.3671 37.1172C30.3671 37.7852 29.9593 38.0946 29.0031 38.1649L28.3562 38.2071L28.4406 38.7063C28.6164 39.7821 29.1367 41.0407 29.8117 42.0602L30.1703 42.6157L30.6062 42.1868C31.1054 41.6946 31.457 41.5188 31.8226 41.5891C32.1671 41.6524 32.5257 41.9899 32.6171 42.3344C32.7296 42.7422 32.6031 43.0516 32.0757 43.593L31.6257 44.0571L32.1742 44.4227C33.1937 45.1047 34.3539 45.5758 35.507 45.7868L36.0414 45.8852L36.0765 45.2453C36.1187 44.5141 36.2382 44.2118 36.5757 44.0078C36.857 43.8321 37.3421 43.825 37.6234 43.9868C37.989 44.2047 38.1156 44.5071 38.1578 45.2383L38.1929 45.8852L38.7273 45.7868C39.325 45.6813 40.1898 45.4141 40.7593 45.161L41.125 44.9993V44.4157C41.132 43.0164 41.3851 42.2078 42.039 41.5188C42.3906 41.1461 42.9531 40.8016 43.4664 40.6328C43.614 40.5836 44.0851 40.5274 44.514 40.4993L45.2945 40.4571L45.4843 39.8946C45.5898 39.5852 45.7234 39.0719 45.7796 38.7625L45.8851 38.193L45.2312 38.1578C44.507 38.1157 44.2046 37.9891 43.9937 37.6235C43.839 37.3633 43.832 36.8993 43.9726 36.625C44.1554 36.2735 44.5 36.1188 45.2312 36.0696L45.8781 36.0274L45.7937 35.5C45.6039 34.4102 45.1117 33.2149 44.4296 32.1743L44.064 31.6258L43.5929 32.0758C43.0515 32.6032 42.7492 32.7297 42.3343 32.6172C41.9898 32.5258 41.6523 32.1672 41.589 31.8227C41.5187 31.4571 41.6945 31.1055 42.1867 30.6063L42.6156 30.1774L42.0671 29.8118C41.0687 29.1368 39.8031 28.6235 38.7062 28.4407L38.207 28.3563L38.1648 29.0032C38.0945 29.9594 37.7851 30.3672 37.1171 30.3672C36.4492 30.3672 36.1398 29.9594 36.0695 29.0032L36.0273 28.3563L35.5 28.4407ZM37.6234 32.0336C37.7359 32.1039 37.8976 32.2727 37.982 32.4063C38.1296 32.6453 38.1367 32.7086 38.1367 34.9375C38.1367 36.1961 38.1085 37.3141 38.0804 37.4336C38.0031 37.6938 34.9515 40.7946 34.5718 40.9914C34.2414 41.1602 34.0656 41.1602 33.6859 40.9844C33.4539 40.8789 33.3554 40.7805 33.25 40.5485C33.0812 40.1758 33.0742 39.993 33.2218 39.6977C33.2851 39.5711 33.946 38.8539 34.6914 38.1016L36.0554 36.7305L36.0765 34.6914C36.0976 32.4274 36.1117 32.3571 36.5687 32.0618C36.857 31.8789 37.3351 31.8719 37.6234 32.0336Z"
            fill="#1F3C90" />
        <path
            d="M50.125 40.7242C50.0266 40.7735 49.8156 40.9071 49.6469 41.0125C48.2477 41.8985 46.6164 42.4117 44.8375 42.5242C43.8672 42.5875 43.593 42.686 43.375 43.0446C43.2414 43.2555 43.2344 43.4172 43.2344 45.8852C43.2344 48.8735 43.2977 49.4571 43.7828 50.9406C44.7531 53.8797 46.8062 56.2633 49.5766 57.6555C50.5047 58.1196 50.7297 58.1196 51.6578 57.6555C54.4281 56.2633 56.4812 53.8797 57.4516 50.9406C57.9367 49.4571 58 48.8735 58 45.8922C58 43.368 57.993 43.2766 57.8523 43.0446C57.6273 42.6789 57.3742 42.5875 56.3969 42.5242C54.5758 42.4047 52.9234 41.8703 51.4609 40.9281C51.018 40.6399 50.4344 40.5485 50.125 40.7242ZM51.6156 45.0625C52.0938 45.2524 52.7828 45.4914 53.1484 45.5969C54.3227 45.9274 54.4562 46.1102 54.4281 47.3406C54.4141 48.2969 54.3438 48.7821 54.0906 49.6328C53.7039 50.9336 52.8531 52.2836 51.8406 53.1977C50.7367 54.2031 50.4062 54.1891 49.2531 53.05C48.4938 52.3117 48.0648 51.7211 47.6359 50.8492C47.0734 49.7242 46.8273 48.6836 46.8062 47.3406C46.7781 46.1102 46.9117 45.9274 48.0859 45.5969C48.4516 45.4914 49.1336 45.2524 49.5977 45.0625C50.0617 44.8727 50.5117 44.718 50.5961 44.718C50.6805 44.711 51.1445 44.8656 51.6156 45.0625Z"
            fill="#1F3C90" />
        <path
            d="M50.1531 47.0242C49.9984 47.0945 49.6328 47.2281 49.3515 47.3195L48.8383 47.4883L48.8804 48.0156C48.9226 48.6766 49.2601 49.7172 49.6328 50.3359C49.9 50.793 50.5258 51.5664 50.6172 51.5664C50.7086 51.5664 51.3344 50.793 51.6015 50.3359C51.9742 49.7172 52.2976 48.7047 52.3469 48.0367L52.389 47.4883L51.6297 47.2141C50.6804 46.8836 50.5187 46.8625 50.1531 47.0242Z"
            fill="#1F3C90" />
    </g>
    <defs>
        <clipPath id="clip0_53_323">
            <rect width="36" height="36" fill="white" transform="translate(22 22)" />
        </clipPath>
    </defs>
</svg>
    