<svg width="80" height="80" viewBox="0 0 80 80" fill="none" xmlns="http://www.w3.org/2000/svg">
    <circle cx="40" cy="40" r="40" fill="#D2AE80" />
    <g clip-path="url(#clip0_53_327)">
        <path
            d="M27.7598 25.0938C26.6406 25.3926 25.668 26.2715 25.2168 27.373L25.0293 27.8418L25.0117 37.5508C25.0059 42.8945 25.0117 47.2656 25.0293 47.2656C25.0469 47.2656 25.2227 47.1309 25.4219 46.9727C25.9023 46.5859 26.8281 46.1348 27.4902 45.9648L28.0176 45.8301H33.1738H38.3301L38.7285 45.9824L39.1211 46.1406V37.1465C39.1211 29.1719 39.1094 28.1113 39.0273 27.7891C38.6992 26.4883 37.6387 25.4277 36.3379 25.0879C35.834 24.959 28.2461 24.959 27.7598 25.0938Z"
            fill="#1F3C90" />
        <path
            d="M40.8495 38.9278C40.8495 48.9122 40.8437 49.4219 40.7441 49.7559C40.4277 50.7872 39.6191 51.625 38.5995 51.9707C38.2128 52.0997 38.1835 52.0997 33.8827 52.1172C29.6347 52.1348 29.5527 52.1289 29.3124 52.0118C28.6913 51.7129 28.6503 50.8985 29.2363 50.5469C29.4179 50.4356 29.5644 50.4297 33.6191 50.4297C38.2656 50.4297 38.1835 50.4356 38.6347 50.0489C38.9745 49.7618 39.121 49.4278 39.121 48.959C39.1152 48.3555 38.8398 47.8985 38.3183 47.6407C38.1074 47.5352 37.8847 47.5293 33.0859 47.5293H28.0761L27.6015 47.6934C26.3593 48.1094 25.3867 49.1407 25.082 50.3711C24.9355 50.9571 24.9882 52.0293 25.1992 52.5684C25.539 53.4532 26.2187 54.2207 27.0097 54.6133C27.8652 55.0293 26.7402 55 40.914 55H53.6933L54.0507 54.8184C54.455 54.6192 54.666 54.4024 54.8652 53.9688L54.9999 53.67L54.9882 41.6641L54.9706 29.6582L54.8124 29.3946C54.6015 29.0372 54.3261 28.7852 53.9745 28.6211L53.6816 28.4864L47.2656 28.4688L40.8495 28.4571V38.9278Z"
            fill="#1F3C90" />
    </g>
    <defs>
        <clipPath id="clip0_53_327">
            <rect width="30" height="30" fill="white" transform="translate(25 25)" />
        </clipPath>
    </defs>
</svg>
    