<svg width="80" height="80" viewBox="0 0 80 80" fill="none" xmlns="http://www.w3.org/2000/svg">
    <circle cx="40" cy="40" r="40" fill="#D2AE80" />
    <g clip-path="url(#clip0_53_324)">
        <path
            d="M39.7951 22.1547C39.6116 22.2813 39.4484 22.5696 38.8503 23.8211C38.4561 24.6579 38.1027 25.361 38.0755 25.3821C38.0415 25.4032 37.321 25.5227 36.4782 25.6493C34.8945 25.8813 34.7042 25.9376 34.4255 26.2469C34.2488 26.4368 34.1605 26.9641 34.242 27.3227C34.276 27.4563 34.6906 27.9204 35.4859 28.7219L36.6821 29.9172L36.4306 31.429C36.2947 32.2586 36.1859 33.0743 36.1859 33.2501C36.1859 33.8829 36.6413 34.3329 37.2394 34.2836C37.5181 34.2626 37.8444 34.1219 38.9591 33.5102C39.7135 33.0954 40.366 32.7579 40.4 32.7579C40.434 32.7579 41.0865 33.0954 41.8409 33.5102C42.8673 34.0727 43.2887 34.2626 43.5198 34.2836C44.1247 34.3399 44.6141 33.8829 44.6141 33.2571C44.6141 33.0813 44.5053 32.2516 44.3694 31.4219L44.1179 29.9172L45.2802 28.7501C45.9191 28.1102 46.4696 27.5196 46.5104 27.4352C46.5512 27.3508 46.5851 27.1047 46.5851 26.8938C46.5851 26.5633 46.558 26.4719 46.3812 26.268C46.2725 26.1344 46.0958 25.9868 45.9938 25.9446C45.8851 25.9024 45.1034 25.7618 44.2402 25.6282C43.2207 25.4735 42.6702 25.361 42.6566 25.3047C42.6362 25.2555 42.3099 24.5594 41.9225 23.7579C41.338 22.5344 41.1816 22.2743 40.9913 22.1477C40.6719 21.9438 40.1077 21.9438 39.7951 22.1547Z"
            fill="#1F3C90" />
        <path
            d="M29.0491 28.8274C28.7433 28.9539 28.6277 29.1297 28.0908 30.2618C27.7917 30.8735 27.513 31.4008 27.4722 31.4289C27.4247 31.45 26.8741 31.5414 26.2488 31.6329C25.0118 31.8086 24.7943 31.893 24.5632 32.2797C24.3797 32.5891 24.3797 33.1446 24.5632 33.4258C24.6311 33.5383 25.0661 34.0024 25.5147 34.4454L26.3372 35.2539L26.1197 36.5407C25.909 37.7922 25.909 37.8344 26.0245 38.1368C26.174 38.5446 26.4527 38.7485 26.9149 38.7907C27.2547 38.8188 27.3227 38.7907 28.383 38.2282L29.4909 37.6305L30.5104 38.193C31.3533 38.6571 31.5979 38.7625 31.9038 38.7836C32.3388 38.8188 32.6379 38.6641 32.8554 38.2985C33.0389 37.9891 33.0253 37.6657 32.8078 36.3649L32.6243 35.2821L33.5486 34.3188C34.3031 33.5383 34.4866 33.3063 34.5206 33.0954C34.609 32.6032 34.3915 32.0829 34.004 31.9C33.8749 31.8368 33.3175 31.7172 32.7534 31.6399C32.1961 31.5555 31.6659 31.4711 31.5843 31.4571C31.4688 31.4289 31.2989 31.1477 30.8503 30.2266C30.3201 29.1438 30.2386 29.0172 30.0007 28.8907C29.7152 28.743 29.3278 28.7149 29.0491 28.8274Z"
            fill="#1F3C90" />
        <path
            d="M50.7856 28.8907C50.5681 29.0102 50.4594 29.179 49.9496 30.2266C49.501 31.1477 49.3311 31.429 49.2155 31.4571C49.134 31.4712 48.5698 31.5626 47.9649 31.661C46.7279 31.8508 46.5376 31.9422 46.354 32.4063C46.1094 33.0391 46.2045 33.229 47.2784 34.354L48.1756 35.2821L47.9921 36.3649C47.7746 37.6657 47.761 37.9891 47.9445 38.2985C48.162 38.6641 48.4611 38.8188 48.8961 38.7837C49.2087 38.7626 49.4398 38.6641 50.2894 38.193L51.309 37.6235L52.4033 38.2141C53.3412 38.7204 53.5451 38.8047 53.8306 38.8047C54.286 38.8047 54.619 38.5657 54.7754 38.1438C54.8909 37.8344 54.8909 37.7993 54.6802 36.5407L54.4627 35.254L55.3463 34.3751C55.8357 33.8899 56.2639 33.4047 56.3047 33.2993C56.4134 32.9829 56.3862 32.5329 56.2367 32.2797C56.0056 31.893 55.7813 31.8087 54.5239 31.6258C53.885 31.5344 53.3276 31.429 53.2936 31.3868C53.2597 31.3516 52.981 30.8102 52.6751 30.1915C52.3285 29.4883 52.0566 29.0243 51.9411 28.9329C51.6692 28.736 51.1051 28.7079 50.7856 28.8907Z"
            fill="#1F3C90" />
        <path
            d="M28.5055 41.3007C27.9141 41.4694 27.316 41.8069 26.9014 42.2007C26.0994 42.953 25.7052 43.9163 25.7052 45.0905C25.712 46.2858 26.0314 47.1436 26.7723 47.91C27.2413 48.4022 27.717 48.6835 28.4375 48.9085C28.8589 49.035 28.9065 49.0632 28.7094 49.0632C28.2948 49.0702 27.2073 49.4147 26.5752 49.7382C25.3993 50.3358 24.3458 51.3764 23.7545 52.5225C23.1563 53.6827 23 54.421 23 56.0874C23 57.4585 23.034 57.578 23.4486 57.8663C23.6389 57.9928 23.8496 57.9999 27.8666 57.9999H32.0874L31.9991 57.5921C31.8903 57.1139 31.8767 55.6022 31.9719 54.7655C32.1486 53.303 32.7195 51.7632 33.5012 50.6452C33.6031 50.5046 33.5895 50.4835 33.2089 50.2093C32.4273 49.6468 31.5573 49.2671 30.6601 49.1124L30.1707 49.028L30.6465 48.8733C31.8359 48.5007 32.7943 47.4671 33.1613 46.1663C33.2973 45.6882 33.3109 44.6827 33.1885 44.1835C32.8962 42.946 31.9923 41.8843 30.8504 41.4343C30.2523 41.1952 29.1036 41.1319 28.5055 41.3007Z"
            fill="#1F3C90" />
        <path
            d="M39.4212 41.3079C38.4153 41.561 37.4841 42.3204 37.0423 43.2414C35.914 45.618 37.0355 48.2758 39.4484 48.9368L39.7543 49.0211L39.2377 49.1125C37.1647 49.4852 35.2411 51.0602 34.4187 53.0641C34.0653 53.9289 33.9361 54.611 33.8954 55.8977C33.8614 56.9664 33.8682 57.086 33.9973 57.3883C34.0857 57.5922 34.2216 57.768 34.3643 57.8594C34.5818 58 34.6838 58 40.3864 58C46.7686 58 46.4152 58.0282 46.7347 57.5641C46.8842 57.3391 46.891 57.2829 46.8842 56.0664C46.8842 55.0118 46.857 54.6954 46.7347 54.1821C46.1297 51.6789 44.2742 49.7594 41.8817 49.1758C41.6438 49.1196 41.3651 49.0704 41.2496 49.0633C41.0797 49.0563 41.1068 49.0352 41.4195 48.9368C43.1255 48.3743 44.2062 46.9047 44.2062 45.1539C44.2062 44.036 43.846 43.1289 43.0915 42.3485C42.5682 41.8071 42.0244 41.4766 41.3719 41.3008C40.8893 41.1672 39.9514 41.1743 39.4212 41.3079Z"
            fill="#1F3C90" />
        <path
            d="M50.3642 41.3078C48.6718 41.7297 47.5367 43.2555 47.5367 45.0977C47.5367 46.1875 47.9309 47.2211 48.6038 47.9172C49.0456 48.3813 49.4534 48.6344 50.1535 48.8734C50.5477 49.0141 50.6429 49.0633 50.4933 49.0703C49.7865 49.0844 48.3931 49.6328 47.6047 50.2023C47.2105 50.4836 47.1969 50.5047 47.2988 50.6453C48.0805 51.7633 48.6514 53.3031 48.8281 54.7656C48.9233 55.6023 48.9097 57.1141 48.8009 57.5992L48.7126 58H52.9266C57.0047 58 57.1475 57.993 57.3582 57.8594C57.7864 57.5852 57.8204 57.4234 57.7796 55.8555C57.7592 54.6813 57.7252 54.3648 57.6029 53.9289C57.0659 52.0516 55.8833 50.575 54.2316 49.7172C53.5791 49.3797 52.8858 49.1547 52.3285 49.0914L51.9207 49.0422L52.2605 48.9578C53.8238 48.543 54.9725 47.1227 55.122 45.4141C55.2919 43.5789 54.0549 41.7859 52.2945 41.3008C51.8255 41.1742 50.8944 41.1742 50.3642 41.3078Z"
            fill="#1F3C90" />
    </g>
    <defs>
        <clipPath id="clip0_53_324">
            <rect width="34.8" height="36" fill="white" transform="translate(23 22)" />
        </clipPath>
    </defs>
</svg>
    