<svg width="80" height="80" viewBox="0 0 80 80" fill="none" xmlns="http://www.w3.org/2000/svg">
    <circle cx="40" cy="40" r="40" fill="#D2AE80" />
    <g clip-path="url(#clip0_53_325)">
        <path
            d="M31.2953 25.8742C30.5359 26.2469 30.1562 26.8867 30.1562 27.7656C30.1562 28.6445 30.5359 29.2844 31.2953 29.657L31.7242 29.875H39.993H48.2617L48.6133 29.7063C49.1266 29.4672 49.3867 29.2211 49.6258 28.7359C49.8156 28.3703 49.8438 28.2297 49.8438 27.7656C49.8438 27.3016 49.8156 27.1609 49.6258 26.7953C49.3867 26.3102 49.1266 26.0641 48.6133 25.825L48.2617 25.6562H39.993H31.7242L31.2953 25.8742Z"
            fill="#1F3C90" />
        <path d="M37.8906 34.4453V36.9062H40H42.1094V34.4453V31.9844H40H37.8906V34.4453Z"
            fill="#1F3C90" />
        <path
            d="M35.7812 39.9507V40.9492L34.9797 41.4976L34.1711 42.039H33.1164H32.0547V47.3406V52.6492L33.6227 52.6703L35.1836 52.6914L36.9062 53.4015C39.1703 54.3437 39.2758 54.3718 40 54.3718C40.7172 54.3718 40.7875 54.3507 43.1289 53.4015L44.8867 52.6914L46.4547 52.6703L48.0156 52.6492V47.3406V42.039H46.9117L45.8008 42.032L45.0625 41.5257L44.3242 41.0125L44.282 39.9929C44.2609 39.4375 44.2328 38.9734 44.2328 38.9593C44.2258 38.9523 42.3203 38.9453 40 38.9453H35.7812V39.9507Z"
            fill="#1F3C90" />
        <path
            d="M22.6328 42.0952C22.443 42.1796 22.2461 42.3484 22.1196 42.5312C22.0071 42.6859 22 43.0866 22 47.2984C22 52.4312 21.9719 52.1429 22.4922 52.4663C22.7383 52.621 22.7805 52.621 26.3805 52.6421L30.0156 52.6632V47.3476V42.039L26.3805 42.046C24.3766 42.046 22.6891 42.0671 22.6328 42.0952Z"
            fill="#1F3C90" />
        <path
            d="M50.0547 47.3476V52.6632L53.6617 52.6421C57.2195 52.621 57.2617 52.621 57.5078 52.4663C58.0281 52.1429 58 52.4312 58 47.3124C58 42.2991 58.0211 42.5382 57.5922 42.2148C57.4094 42.0812 57.2758 42.0741 53.732 42.0531L50.0547 42.032V47.3476Z"
            fill="#1F3C90" />
    </g>
    <defs>
        <clipPath id="clip0_53_325">
            <rect width="36" height="36" fill="white" transform="translate(22 22)" />
        </clipPath>
    </defs>
</svg>
    