<svg width="80" height="80" viewBox="0 0 80 80" fill="none" xmlns="http://www.w3.org/2000/svg">
    <circle cx="40" cy="40" r="40" fill="#D2AE80" />
    <g clip-path="url(#clip0_53_321)">
        <path
            d="M25.7031 40V55H40H54.2969V48.291V41.582H53.5469C51.666 41.582 49.7734 41.207 47.8398 40.4512C47.0781 40.1523 45.8594 39.5547 45.2559 39.1855L44.8691 38.9512L42.2559 39.8652C40.8203 40.3633 39.6309 40.7617 39.6191 40.75C39.6074 40.7383 39.9648 39.6719 40.4102 38.3887C40.8613 37.0996 41.2305 36.0156 41.2305 35.9805C41.2305 35.9395 41.0371 35.623 40.7969 35.2773C38.8398 32.3945 37.7148 28.9551 37.7148 25.8672V25H31.709H25.7031V40ZM32.0898 26.6641C32.0898 26.998 32.1191 27.543 32.1484 27.8711C32.1836 28.1992 32.2012 28.4863 32.1836 28.498C32.166 28.5156 31.7852 28.5742 31.3398 28.627L30.5195 28.7266L30.4844 28.3691C30.4668 28.1758 30.4316 27.5781 30.4141 27.0332L30.373 26.0547H31.2285H32.0898V26.6641ZM32.9922 32.2305C33.0801 32.5117 33.1387 32.7578 33.127 32.7695C33.1152 32.7871 32.8047 32.8984 32.4355 33.0215C32.0664 33.1445 31.7207 33.2676 31.668 33.291C31.5859 33.3203 31.5449 33.25 31.416 32.8398C31.1816 32.0723 30.8359 30.6309 30.877 30.5898C30.9004 30.5664 31.2637 30.4785 31.6914 30.3965L32.4707 30.2383L32.6523 30.9707C32.752 31.3809 32.9043 31.9434 32.9922 32.2305ZM34.375 35.5645C34.6797 36.1797 34.9375 36.6953 34.9492 36.7129C34.9551 36.7305 34.6445 36.9414 34.2578 37.1699L33.5488 37.5977L33.4316 37.4043C33.1562 36.959 32.2656 35.1133 32.3066 35.0723C32.3711 35.0078 33.6895 34.4336 33.7598 34.4395C33.7949 34.4395 34.0703 34.9492 34.375 35.5645ZM36.4141 38.8398C36.6719 39.1738 37.0293 39.6133 37.2109 39.8242C37.3926 40.0352 37.5391 40.2227 37.5391 40.2402C37.5391 40.2637 37.2695 40.5273 36.9473 40.8262L36.3496 41.377L36.0332 41.0254C35.5645 40.5039 34.6387 39.2969 34.6387 39.209C34.6387 39.1387 35.8105 38.248 35.9102 38.2422C35.9277 38.2422 36.1562 38.5117 36.4141 38.8398ZM39.5488 42.127C39.9414 42.4551 40.3867 42.8184 40.5449 42.9238C40.6973 43.0352 40.8203 43.1348 40.8203 43.1523C40.8203 43.1641 40.6094 43.4805 40.3457 43.8438L39.8711 44.5117L39.7012 44.3887C39.3555 44.1484 38.5703 43.5098 38.1309 43.123L37.6738 42.7246L38.2305 42.1211C38.5352 41.793 38.793 41.5234 38.8105 41.5234C38.8223 41.5234 39.1562 41.793 39.5488 42.127ZM43.7676 44.8984L44.6289 45.332L44.5469 45.5254C44.3535 45.9824 43.9727 46.8262 43.9551 46.8438C43.9258 46.873 41.7578 45.7598 41.5938 45.6367L41.459 45.5312L41.8809 44.8223L42.3086 44.1133L42.6016 44.2832C42.7656 44.3828 43.2871 44.6582 43.7676 44.8984ZM27.3906 44.4531C27.9121 44.5 29.1426 44.7109 29.2012 44.7695C29.2188 44.7812 28.7676 46.3281 28.7383 46.3574C28.7266 46.3691 28.4512 46.3281 28.1348 46.2695C27.8125 46.2051 27.3438 46.1406 27.0977 46.123L26.6406 46.082V45.2383C26.6406 44.7754 26.6582 44.3945 26.6875 44.3945C26.7109 44.3945 27.0273 44.4238 27.3906 44.4531ZM32.1191 46.1582C32.3477 46.3164 32.6758 46.5684 32.8574 46.7266L33.1855 47.0078L32.6172 47.6113L32.0488 48.2148L31.5684 47.8398C31.3047 47.6289 30.9121 47.3594 30.6895 47.2305L30.2852 47.002L30.666 46.252L31.041 45.502L31.375 45.6895C31.5566 45.7891 31.8965 46 32.1191 46.1582ZM47.1426 46.2344C47.5176 46.3398 48.0215 46.4746 48.2617 46.5332C48.502 46.5918 48.7188 46.6562 48.748 46.6738C48.7715 46.6973 48.7129 47.0723 48.625 47.5059C48.4258 48.4258 48.5723 48.3613 47.4121 48.0566C46.416 47.793 45.7773 47.582 45.7539 47.5117C45.7422 47.4707 45.9648 46.791 46.2402 46.041C46.2578 45.9941 46.3105 45.9824 46.3691 46C46.4219 46.0234 46.7734 46.1289 47.1426 46.2344ZM52.1758 47.0723L53.125 47.1074V47.957V48.8066L52.1465 48.7715C51.2148 48.7305 50.3945 48.6543 50.3359 48.5957C50.3242 48.584 50.3535 48.209 50.4121 47.7637L50.5117 46.9609L50.8633 46.9961C51.0625 47.0137 51.6484 47.0488 52.1758 47.0723ZM34.7617 48.9062C35.0605 49.3691 35.6641 50.5879 35.6641 50.7285C35.6641 50.7812 35.582 50.8457 35.4766 50.8809C35.3711 50.916 35.0254 51.0391 34.7148 51.1504L34.1465 51.3613L33.8594 50.7578C33.7012 50.4297 33.4727 50.0078 33.3555 49.8203C33.2383 49.6328 33.1504 49.4629 33.168 49.4453C33.209 49.4043 34.457 48.502 34.4805 48.4961C34.4863 48.4961 34.6152 48.6836 34.7617 48.9062ZM36.2148 52.9023C36.2324 53.0078 36.2617 53.3242 36.2852 53.6055L36.3262 54.1211H35.4766H34.6211L34.5801 53.5586C34.5566 53.2539 34.5508 52.9844 34.5684 52.9668C34.5977 52.9434 35.8398 52.7383 36.0801 52.7207C36.1445 52.7148 36.1914 52.7793 36.2148 52.9023Z"
            fill="#1F3C90" />
        <path
            d="M52.3633 26.248C52.252 26.2832 51.9941 26.4707 51.7891 26.6699L51.4082 27.0273L52.3633 27.9297C52.8848 28.4277 53.3418 28.8437 53.3828 28.8555C53.4883 28.8789 53.9336 28.3809 54.0684 28.0879C54.209 27.7715 54.209 27.2734 54.0684 26.9629C53.7754 26.3359 53.0488 26.0312 52.3633 26.248Z"
            fill="#1F3C90" />
        <path
            d="M46.7734 31.6738L43.334 35.1133L42.8359 36.543C42.5664 37.3223 42.3554 37.9785 42.3672 37.9961C42.3847 38.0078 43.041 37.8027 43.8203 37.5391L45.2441 37.0527L48.7187 33.584L52.1933 30.1211L51.3203 29.2539C50.834 28.7793 50.3886 28.3516 50.3301 28.3106C50.2246 28.2344 49.9375 28.5098 46.7734 31.6738Z"
            fill="#1F3C90" />
    </g>
    <defs>
        <clipPath id="clip0_53_321">
            <rect width="30" height="30" fill="white" transform="translate(25 25)" />
        </clipPath>
    </defs>
</svg>
    