<svg width="126" height="78" viewBox="0 0 126 78" fill="none" xmlns="http://www.w3.org/2000/svg">
    <g clip-path="url(#clip0_145_84)">
        <path d="M63 9.21748L69.9222 16.0338H87.5778L71.4 0L63 9.21748Z" fill="#D2AE80" />
        <path d="M71.4 0H54.6L38.4222 16.0338H56.0778L63 9.21748L71.4 0Z" fill="#1F3C90" />
        <path d="M91.3111 19.5969H73.6555L89.8333 35.6307H90.0666L98.7777 27.0329L91.3111 19.5969Z"
            fill="#D2AE80" />
        <path d="M52.3444 19.5969H34.6888L27.2222 27.0329L35.9333 35.6307H36.1666L52.3444 19.5969Z"
            fill="#1F3C90" />
        <path d="M63 26.4132L56.0778 19.5969H38.4222L54.6 35.6307L63 26.4132Z" fill="#D2AE80" />
        <path d="M54.6 35.6307H71.4L87.5778 19.5969H69.9222L63 26.4132L54.6 35.6307Z" fill="#1F3C90" />
        <path
            d="M19.6001 62.5927C18.9778 62.8251 18.3556 62.98 17.6556 63.1349C16.9556 63.2899 16.2556 63.3673 15.5556 63.4448C14.7778 63.5222 14.0001 63.5222 13.1445 63.5222C11.3556 63.5222 9.72228 63.3673 8.16672 62.98C6.68894 62.5927 5.36672 62.0505 4.27783 61.276C3.18894 60.5014 2.33339 59.5719 1.71117 58.41C1.08894 57.2481 0.777832 55.9314 0.777832 54.3822C0.777832 52.8331 1.08894 51.5163 1.71117 50.3544C2.33339 49.1925 3.18894 48.263 4.27783 47.4885C5.36672 46.7139 6.68894 46.1717 8.16672 45.7844C9.6445 45.3971 11.3556 45.2422 13.1445 45.2422C14.0001 45.2422 14.7778 45.2422 15.5556 45.3196C16.3334 45.3971 17.0334 45.4746 17.6556 45.6295C18.3556 45.7844 18.9778 45.9393 19.6001 46.1717C20.2223 46.4041 20.8445 46.6364 21.4667 46.8688V51.129C21.0001 50.8966 20.4556 50.5868 19.9112 50.3544C19.3667 50.122 18.7445 49.8897 18.1223 49.6573C17.5001 49.4249 16.7223 49.27 15.9445 49.1151C15.1667 48.9602 14.3112 48.8827 13.3001 48.8827C11.8223 48.8827 10.5778 49.0376 9.56672 49.3475C8.55561 49.6573 7.77783 50.0446 7.23339 50.5868C6.68894 51.0515 6.22228 51.6712 5.98894 52.2908C5.75561 52.988 5.60005 53.6076 5.60005 54.3822C5.60005 54.847 5.67783 55.3117 5.75561 55.7765C5.83339 56.2412 6.06672 56.6285 6.30005 57.0932C6.53339 57.4805 6.8445 57.8678 7.23339 58.1776C7.62228 58.4875 8.08894 58.7973 8.63339 59.0297C9.17783 59.262 9.87783 59.4944 10.6556 59.6493C11.4334 59.8043 12.2889 59.8817 13.3001 59.8817C14.3112 59.8817 15.1667 59.8043 15.9445 59.7268C16.7223 59.5719 17.4223 59.417 18.1223 59.2621C18.7445 59.0297 19.3667 58.7973 19.9112 58.5649C20.4556 58.3326 21.0001 58.0227 21.4667 57.7904V62.0505C20.8445 62.2054 20.2223 62.4378 19.6001 62.5927Z"
            fill="#9D9D9C" />
        <path
            d="M43.9445 54.3823C43.9445 53.7627 43.8667 53.0656 43.6334 52.4459C43.4001 51.8262 43.089 51.2066 42.5445 50.6644C42.0001 50.1222 41.2223 49.6574 40.289 49.3476C39.3556 49.0378 38.189 48.8828 36.789 48.8828C35.8556 48.8828 35.0001 48.9603 34.2223 49.1152C33.5223 49.2701 32.9001 49.5025 32.3556 49.7349C31.8112 49.9672 31.3445 50.2771 31.0334 50.6644C30.6445 51.0517 30.4112 51.3615 30.1778 51.8262C29.9445 52.2135 29.789 52.6783 29.7112 53.0656C29.6334 53.5303 29.5556 53.9176 29.5556 54.3823C29.5556 54.8471 29.6334 55.2344 29.7112 55.6991C29.789 56.1639 29.9445 56.5512 30.1778 56.9384C30.4112 57.3257 30.6445 57.713 31.0334 58.1003C31.4223 58.4876 31.8112 58.72 32.3556 59.0298C32.9001 59.2622 33.5223 59.4946 34.2223 59.6495C34.9223 59.8044 35.7778 59.8818 36.789 59.8818C38.189 59.8818 39.4334 59.7269 40.289 59.4171C41.2223 59.1073 41.9223 58.6425 42.4667 58.1778C43.0112 57.6356 43.4001 57.0934 43.5556 56.3962C43.8667 55.6991 43.9445 55.002 43.9445 54.3823ZM48.7667 54.3823C48.7667 55.854 48.4556 57.2483 47.9112 58.4101C47.3667 59.572 46.589 60.5015 45.5001 61.2761C44.489 62.0507 43.2445 62.6703 41.7667 63.0576C40.289 63.4449 38.6556 63.6773 36.789 63.6773C34.9223 63.6773 33.289 63.4449 31.8112 63.0576C30.3334 62.6703 29.089 62.0507 28.0001 61.2761C26.989 60.5015 26.1334 59.572 25.589 58.4101C25.0445 57.2483 24.7334 55.9315 24.7334 54.3823C24.7334 52.9106 25.0445 51.5164 25.589 50.3545C26.1334 49.1927 26.989 48.2632 28.0001 47.4886C29.0112 46.714 30.3334 46.0944 31.8112 45.7071C33.289 45.3198 35.0001 45.0874 36.789 45.0874C38.6556 45.0874 40.289 45.3198 41.7667 45.7071C43.2445 46.0944 44.489 46.714 45.5001 47.4886C46.5112 48.2632 47.3667 49.2701 47.9112 50.3545C48.4556 51.5164 48.7667 52.8332 48.7667 54.3823Z"
            fill="#9D9D9C" />
        <path
            d="M74.4 63.5829V51.2671L67.8667 63.5829H63.2778L56.7444 51.2671V63.5829H52V46H58.4556L65.6111 59.3227L72.6889 46H79.1444V63.5829H74.4Z"
            fill="#9D9D9C" />
        <path
            d="M91.8555 56.3963H98.3111L95.1222 49.8899L91.8555 56.3963ZM100.022 59.8045H90.1444L88.5111 63.1352H83.2222L92.4777 45.5522H97.7666L107.022 63.1352H101.733L100.022 59.8045Z"
            fill="#9D9D9C" />
        <path d="M117.678 49.3477V63.1352H112.933V49.3477H105.389V45.5522H125.144V49.3477H117.678Z"
            fill="#9D9D9C" />
        <path
            d="M0 71.8809H3.18889V76.9157H2.25556V72.6555H0.933333V76.9157H0V71.8809ZM6.22222 74.9018V76.9931H5.28889V71.9584H7.07778C7.46667 71.9584 7.77778 72.1133 8.08889 72.3457C8.32222 72.6555 8.47778 72.9653 8.47778 73.4301C8.47778 73.8948 8.32222 74.2047 8.08889 74.5145C7.85555 74.8243 7.54444 74.9792 7.07778 74.9792H6.22222V74.9018ZM6.22222 72.6555V74.1272H6.68889C7.15556 74.1272 7.38889 73.8948 7.38889 73.3526C7.38889 72.8879 7.15556 72.578 6.68889 72.578H6.22222V72.6555ZM10.4222 73.585C10.4222 72.4231 10.9667 71.8809 12.0556 71.8809C12.6 71.8809 12.9889 72.0358 13.3 72.2682C13.6111 72.5006 13.6889 72.9653 13.6889 73.585V75.444C13.6889 76.0636 13.5333 76.5284 13.3 76.7608C12.9889 76.9931 12.6 77.1481 12.0556 77.1481C10.9667 77.1481 10.4222 76.6059 10.4222 75.444V73.585ZM12.0556 72.578C11.5889 72.578 11.3556 72.8879 11.3556 73.4301V75.5214C11.3556 76.0636 11.5889 76.3735 12.0556 76.3735C12.2889 76.3735 12.4444 76.296 12.5222 76.1411C12.6 75.9862 12.6778 75.8313 12.6778 75.5214V73.4301C12.6778 73.1203 12.6 72.9653 12.5222 72.8104C12.4444 72.6555 12.2889 72.578 12.0556 72.578ZM15.7111 71.8809H16.6444V73.7399C16.6444 74.5919 16.5667 75.1342 16.4889 75.5214L17.8889 71.8035H18.9V76.8382H17.9667V74.9018C17.9667 74.1272 18.0444 73.5075 18.1222 73.1203L16.7222 76.8382H15.7111V71.8809ZM21.8556 73.3526H20.9222C20.9222 72.8879 21.0778 72.5006 21.3111 72.2682C21.5444 71.9584 21.9333 71.8035 22.4 71.8035C22.6333 71.8035 22.8667 71.8035 23.1 71.8809C23.3333 71.9584 23.4889 72.1133 23.6444 72.3457C23.8 72.578 23.8778 72.8104 23.8778 73.1203C23.8778 73.3526 23.8 73.585 23.6444 73.8174C23.4889 74.0497 23.3333 74.1272 23.1 74.2047C23.3333 74.2821 23.5667 74.437 23.7222 74.592C23.8778 74.8243 23.9556 75.1342 23.9556 75.444C23.9556 75.9862 23.8 76.296 23.5667 76.6059C23.3333 76.8382 22.9444 76.9931 22.4 76.9931C21.9333 76.9931 21.5444 76.8382 21.2333 76.6059C20.9222 76.3735 20.7667 75.9862 20.7667 75.5214H21.7778C21.7778 75.9862 22.0111 76.2186 22.4 76.2186C22.7889 76.2186 23.0222 75.9087 23.0222 75.3665C23.0222 74.8243 22.7889 74.5145 22.3222 74.5145H22.0889V73.8174H22.3222C22.4778 73.8174 22.6333 73.7399 22.7889 73.6625C22.9444 73.585 22.9444 73.4301 22.9444 73.1977C22.9444 72.9653 22.8667 72.8104 22.7889 72.733C22.7111 72.578 22.5556 72.5006 22.4 72.5006C22.2444 72.5006 22.0889 72.578 22.0111 72.733C21.9333 72.9653 21.8556 73.1202 21.8556 73.3526ZM26.9889 72.6555V73.9723H27.5333C27.9222 73.9723 28.1556 73.7399 28.1556 73.2752C28.1556 73.0428 28.0778 72.8879 28 72.8104C27.9222 72.733 27.7667 72.6555 27.5333 72.6555H26.9889ZM26.9889 74.6694V76.2186H27.6111C27.7667 76.2186 27.9222 76.1411 28 76.0636C28.0778 75.9087 28.1556 75.7538 28.1556 75.444C28.1556 74.9018 28 74.6694 27.6111 74.6694H26.9889ZM26.0556 76.9931V71.9584H27.8444C28.2333 71.9584 28.5444 72.1133 28.7778 72.3457C29.0111 72.578 29.0889 72.8879 29.0889 73.1977C29.0889 73.4301 29.0111 73.6625 28.9333 73.8948C28.7778 74.1272 28.6222 74.2821 28.4667 74.2821C28.7 74.3596 28.9333 74.5145 29.0111 74.7469C29.1667 74.9792 29.1667 75.2116 29.1667 75.5214C29.1667 75.9862 29.0889 76.3735 28.8556 76.6059C28.6222 76.9157 28.3889 76.9931 28 76.9931H26.0556ZM31.0333 73.585C31.0333 72.4231 31.5778 71.8809 32.6667 71.8809C33.2111 71.8809 33.6 72.0358 33.9111 72.2682C34.2222 72.5006 34.3 72.9653 34.3 73.585V75.444C34.3 76.0636 34.1444 76.5284 33.9111 76.7608C33.6 76.9931 33.2111 77.1481 32.6667 77.1481C31.5778 77.1481 31.0333 76.6059 31.0333 75.444V73.585ZM32.7444 72.578C32.2778 72.578 32.0444 72.8879 32.0444 73.4301V75.5214C32.0444 76.0636 32.2778 76.3735 32.7444 76.3735C32.9778 76.3735 33.1333 76.296 33.2111 76.1411C33.2889 75.9862 33.3667 75.8313 33.3667 75.5214V73.4301C33.3667 73.1203 33.2889 72.9653 33.2111 72.8104C33.0556 72.6555 32.9 72.578 32.7444 72.578ZM37.0222 71.8809H39.9V76.1411H40.2111V77.9226H39.2778V76.9157H37.1778V77.9226H36.2444V76.1411H36.5556C36.7111 75.7538 36.8667 75.3665 36.9444 74.9792C37.0222 74.592 37.0222 74.0497 37.0222 73.4301V71.8809ZM38.8889 72.6555H37.8778V73.8174C37.8778 74.3596 37.8778 74.8243 37.8 75.1342C37.7222 75.444 37.6444 75.8313 37.4889 76.1411H38.8889V72.6555ZM45.1889 73.585H44.2556V73.5075C44.2556 73.1977 44.1778 72.9653 44.1 72.8104C44.0222 72.6555 43.8667 72.6555 43.6333 72.6555C43.4 72.6555 43.2444 72.733 43.1667 72.8104C43.0889 72.9653 43.0111 73.1977 43.0111 73.5075V75.5214C43.0111 75.8313 43.0889 76.0636 43.1667 76.2186C43.2444 76.3735 43.4 76.4509 43.6333 76.4509C43.8667 76.4509 43.9444 76.3735 44.1 76.2186C44.1778 76.0636 44.2556 75.8313 44.2556 75.5214V75.2116H45.1889V75.444C45.1889 76.6059 44.6444 77.1481 43.6333 77.1481C43.3222 77.1481 43.0889 77.0706 42.8556 76.9931C42.6222 76.9157 42.4667 76.7608 42.3889 76.6059C42.3111 76.4509 42.2333 76.296 42.1556 76.0636C42.0778 75.9087 42.0778 75.6764 42.0778 75.444V73.585C42.0778 72.4231 42.6222 71.8809 43.6333 71.8809C44.1 71.8809 44.4889 72.0358 44.8 72.2682C45.0333 72.5006 45.1889 72.8879 45.1889 73.3526V73.585ZM49.1556 72.6555V76.9157H48.2222V72.6555H47.0556V71.8809H50.4V72.6555H49.1556ZM53.1222 72.6555V73.9723H53.6667C54.0556 73.9723 54.2889 73.7399 54.2889 73.2752C54.2889 73.0428 54.2111 72.8879 54.1333 72.8104C54.0555 72.733 53.9 72.6555 53.6667 72.6555H53.1222ZM53.1222 74.6694V76.2186H53.7444C53.9 76.2186 54.0555 76.1411 54.1333 76.0636C54.2111 75.9087 54.2889 75.7538 54.2889 75.444C54.2889 74.9018 54.1333 74.6694 53.7444 74.6694H53.1222ZM52.1111 76.9931V71.9584H53.9C54.2889 71.9584 54.6 72.1133 54.8333 72.3457C55.0667 72.578 55.1444 72.8879 55.1444 73.1977C55.1444 73.4301 55.0667 73.6625 54.9889 73.8948C54.8333 74.1272 54.6778 74.2821 54.5222 74.2821C54.7556 74.3596 54.9889 74.5145 55.0667 74.7469C55.2222 74.9792 55.2222 75.2116 55.2222 75.5214C55.2222 75.9862 55.1444 76.3735 54.9111 76.6059C54.6778 76.9157 54.4444 76.9931 54.0556 76.9931H52.1111ZM57.1667 71.8809H59.8889V72.6555H58.1V73.8174H59.7333V74.592H58.1V76.1411H59.8889V76.9157H57.1667V71.8809ZM62.8444 71.8809V73.8174H64.0889V71.8809H65.0222V76.9157H64.0889V74.592H62.8444V76.9157H61.9111V71.8809H62.8444ZM68.1333 71.8809V73.8174H69.3778V71.8809H70.3111V76.9157H69.3778V74.592H68.1333V76.9157H67.2V71.8809H68.1333ZM72.1 76.9931L73.4222 71.9584H74.6667L75.8333 76.9931H74.8222L74.5889 75.6764H73.5L73.1111 76.9931H72.1ZM73.5 74.9018H74.3556L73.9667 72.578L73.5 74.9018ZM79.7222 74.9018H79.2556L78.4 76.9931H77.3111L78.3222 74.8243C78.0889 74.7469 77.8556 74.5145 77.7 74.2821C77.5444 74.0497 77.4667 73.7399 77.4667 73.4301C77.4667 73.0428 77.6222 72.6555 77.8556 72.3457C78.0889 72.0358 78.4 71.9584 78.7889 71.9584H80.6555V76.9931H79.7222V74.9018ZM79.7222 74.2047V72.733H79.2556C78.7889 72.733 78.5555 72.9653 78.5555 73.5075C78.5555 74.0497 78.7889 74.2821 79.2556 74.2821H79.7222V74.2047ZM85.7111 71.8809V74.0497L86.8778 71.8809H87.9667L86.6444 74.0497L87.9667 76.9157H86.8778L86.0222 74.9018L85.6333 75.3665V76.9157H84.7778V71.8809H85.7111ZM89.6778 73.585C89.6778 72.4231 90.2222 71.8809 91.3111 71.8809C91.8556 71.8809 92.2444 72.0358 92.5555 72.2682C92.8667 72.5006 92.9444 72.9653 92.9444 73.585V75.444C92.9444 76.0636 92.7889 76.5284 92.5555 76.7608C92.2444 76.9931 91.8556 77.1481 91.3111 77.1481C90.2222 77.1481 89.6778 76.6059 89.6778 75.444V73.585ZM91.3111 72.578C90.8444 72.578 90.6111 72.8879 90.6111 73.4301V75.5214C90.6111 76.0636 90.8444 76.3735 91.3111 76.3735C91.5444 76.3735 91.7 76.296 91.7778 76.1411C91.8556 75.9862 91.9333 75.8313 91.9333 75.5214V73.4301C91.9333 73.1203 91.8556 72.9653 91.7778 72.8104C91.7 72.6555 91.5444 72.578 91.3111 72.578ZM94.9667 71.8809H96.5222L97.2222 75.2116L97.9222 71.8809H99.4778V76.9157H98.5444V72.3457L97.6111 76.9157H96.9111L95.9778 72.3457V76.9157H95.0444V71.8809H94.9667ZM101.422 71.8809H104.611V76.9157H103.678V72.6555H102.433V76.9157H101.5V71.8809H101.422ZM106.4 76.9931L107.722 71.9584H109.044L110.211 76.9931H109.2L108.967 75.6764H107.878L107.567 76.9931H106.4ZM107.878 74.9018H108.733L108.344 72.578L107.878 74.9018ZM112.856 71.8809V73.8174H114.1V71.8809H115.033V76.9157H114.1V74.592H112.856V76.9157H111.922V71.8809H112.856ZM117.133 71.8809H118.067V73.7399C118.067 74.5919 117.989 75.1342 117.911 75.5214L119.311 71.8035H120.322V76.8382H119.389V74.9018C119.389 74.1272 119.467 73.5075 119.544 73.1203L118.144 76.8382H117.133V71.8809ZM124.6 74.9018H124.133L123.278 76.9931H122.189L123.2 74.8243C122.967 74.7469 122.733 74.5145 122.578 74.2821C122.422 74.0497 122.344 73.7399 122.344 73.4301C122.344 73.0428 122.5 72.6555 122.733 72.3457C122.967 72.0358 123.278 71.9584 123.667 71.9584H125.533V76.9931H124.6V74.9018ZM124.6 74.2047V72.733H124.133C123.667 72.733 123.433 72.9653 123.433 73.5075C123.433 74.0497 123.667 74.2821 124.133 74.2821H124.6V74.2047Z"
            fill="#1F3C90" />
        <path d="M0 41.1301H126M0 67.9305H126" stroke="#1F3C90" stroke-width="1.1591"
            stroke-miterlimit="10" />
    </g>
    <defs>
        <clipPath id="clip0_145_84">
            <rect width="126" height="78" fill="white" />
        </clipPath>
    </defs>
</svg>
    