<svg width="64" height="73" viewBox="0 0 64 73" fill="none" xmlns="http://www.w3.org/2000/svg">
    <g filter="url(#filter0_d_90_657)">
        <path fill-rule="evenodd" clip-rule="evenodd"
            d="M38.4276 55.2588C50.7935 52.3541 60 41.2522 60 28C60 12.536 47.464 0 32 0C16.536 0 4 12.536 4 28C4 41.2522 13.2065 52.3541 25.5724 55.2588L32 65L38.4276 55.2588Z"
            fill="white" />
    </g>
    <g clip-path="url(#clip0_90_657)">
        <path d="M32.0251 21.95L36.48 26.35H47.7923L37.431 16L32.0251 21.95Z" fill="#D2AE80" />
        <path d="M37.4308 16H26.6191L16.2078 26.35H27.5701L32.025 21.95L37.4308 16Z" fill="#1F3C90" />
        <path d="M50.1949 28.65H38.8826L49.2438 39H49.444L55.0001 33.45L50.1949 28.65Z"
            fill="#D2AE80" />
        <path d="M25.1175 28.65H13.8052L9 33.45L14.556 39H14.7563L25.1175 28.65Z" fill="#1F3C90" />
        <path d="M32.025 33.05L27.5701 28.65H16.2078L26.6191 39L32.025 33.05Z" fill="#D2AE80" />
        <path d="M26.6191 39H37.4309L47.7922 28.65H36.4799L32.025 33.05L26.6191 39Z" fill="#1F3C90" />
    </g>
    <defs>
        <filter id="filter0_d_90_657" x="0" y="0" width="64" height="73"
            filterUnits="userSpaceOnUse" color-interpolation-filters="sRGB">
            <feFlood flood-opacity="0" result="BackgroundImageFix" />
            <feColorMatrix in="SourceAlpha" type="matrix"
                values="0 0 0 0 0 0 0 0 0 0 0 0 0 0 0 0 0 0 127 0" result="hardAlpha" />
            <feOffset dy="4" />
            <feGaussianBlur stdDeviation="2" />
            <feComposite in2="hardAlpha" operator="out" />
            <feColorMatrix type="matrix" values="0 0 0 0 0 0 0 0 0 0 0 0 0 0 0 0 0 0 0.25 0" />
            <feBlend mode="normal" in2="BackgroundImageFix" result="effect1_dropShadow_90_657" />
            <feBlend mode="normal" in="SourceGraphic" in2="effect1_dropShadow_90_657" result="shape" />
        </filter>
        <clipPath id="clip0_90_657">
            <rect width="46" height="23" fill="white" transform="translate(9 16)" />
        </clipPath>
    </defs>
</svg>