<svg width="56" height="56" viewBox="0 0 56 56" fill="none" xmlns="http://www.w3.org/2000/svg">
    <circle cx="28" cy="28" r="28" fill="#2F80ED" />
    <path
        d="M32.4906 36.1006C32.35 36.1006 32.2103 36.059 32.0905 35.9777L27.5646 32.9077L25.1371 34.6544C24.9467 34.7913 24.7014 34.8258 24.4803 34.7467C24.2595 34.6675 24.0918 34.4846 24.032 34.2578L22.8131 29.6387L18.458 27.9735C18.1838 27.8686 18.002 27.6063 18 27.3127C17.998 27.0192 18.1762 26.7544 18.4491 26.6458L35.0088 20.0566C35.084 20.0247 35.1635 20.0062 35.2437 20.0013C35.2724 19.9996 35.3011 19.9996 35.3297 20.0012C35.4958 20.0111 35.6589 20.0787 35.7862 20.2036C35.7994 20.2165 35.812 20.2297 35.8238 20.2435C35.9293 20.3639 35.9872 20.5108 35.9982 20.6604C36.0008 20.698 36.0006 20.7361 35.9973 20.7742C35.995 20.8014 35.9911 20.8285 35.9856 20.8553L33.1904 35.5214C33.1455 35.757 32.9851 35.9543 32.7636 36.0461C32.6757 36.0826 32.5829 36.1006 32.4906 36.1006ZM27.962 31.4553L31.9935 34.1899L34.1685 22.7781L26.3131 30.3369L27.943 31.4425C27.9495 31.4466 27.9558 31.451 27.962 31.4553ZM24.6059 30.8472L25.1457 32.8926L26.3087 32.0557L24.7858 31.0227C24.715 30.9748 24.6544 30.9152 24.6059 30.8472ZM20.673 27.2946L23.6634 28.4379C23.8776 28.5198 24.0393 28.6999 24.0978 28.9217L24.4771 30.3589C24.4944 30.1931 24.5696 30.0372 24.6917 29.9196L32.1767 22.7173L20.673 27.2946Z"
        fill="white" />
</svg>
    