<svg width="56" height="56" viewBox="0 0 56 56" fill="none" xmlns="http://www.w3.org/2000/svg">
    <circle cx="28" cy="28" r="28" fill="#5FBC74" />
    <path
        d="M34.3401 21.6139C32.6476 19.9293 30.396 19.001 27.9996 19C25.6086 19 23.3534 19.9275 21.6497 21.6117C19.943 23.2988 19.0022 25.5408 19 27.9166V27.921C19.0003 29.359 19.3784 30.8096 20.0963 32.1337L19.0246 37L23.9516 35.8804C25.1995 36.5086 26.5918 36.8399 27.9962 36.8404H27.9997C30.3903 36.8404 32.6455 35.9128 34.3495 34.2284C36.0577 32.54 36.9989 30.3008 37 27.9235C37.0007 25.563 36.0562 23.3222 34.3401 21.6139ZM27.9996 35.4355H27.9964C26.7355 35.435 25.4861 35.1187 24.3835 34.5207L24.1505 34.3943L20.8743 35.1388L21.5859 31.9077L21.4487 31.6714C20.7667 30.4962 20.4062 29.199 20.4062 27.9195C20.4088 23.7781 23.8149 20.4049 27.9993 20.4049C30.0208 20.4057 31.9203 21.1886 33.3477 22.6091C34.7966 24.0517 35.5943 25.9388 35.5936 27.9231C35.592 32.0655 32.1853 35.4355 27.9996 35.4355Z"
        fill="white" />
    <path
        d="M25.5507 23.9874H25.1562C25.0189 23.9874 24.7959 24.0387 24.6073 24.2438C24.4186 24.4489 23.8867 24.9448 23.8867 25.9534C23.8867 26.9619 24.6245 27.9364 24.7273 28.0733C24.8303 28.2101 26.1514 30.3459 28.2439 31.1675C29.9829 31.8503 30.3368 31.7145 30.7142 31.6803C31.0916 31.6462 31.9322 31.1845 32.1038 30.7059C32.2753 30.2273 32.2753 29.817 32.2239 29.7313C32.1724 29.6459 32.035 29.5947 31.8293 29.4922C31.6233 29.3896 30.6144 28.8854 30.4256 28.8168C30.2369 28.7486 30.0997 28.7144 29.9624 28.9197C29.8251 29.1246 29.4208 29.5986 29.3007 29.7354C29.1807 29.8723 29.0605 29.8895 28.8546 29.7869C28.6487 29.6841 27.9924 29.4638 27.206 28.7656C26.5939 28.2222 26.1692 27.5292 26.049 27.3241C25.929 27.119 26.0362 27.0081 26.1395 26.9058C26.232 26.814 26.3569 26.6885 26.4599 26.5689C26.5627 26.4491 26.592 26.3637 26.6607 26.2269C26.7293 26.0902 26.6949 25.9704 26.6435 25.868C26.592 25.7654 26.1969 24.7518 26.0138 24.3464C25.8596 24.005 25.6974 23.9934 25.5507 23.9874Z"
        fill="white" />
</svg>
    